<svg width="23" height="23" viewBox="0 0 23 23" fill="none" xmlns="http://www.w3.org/2000/svg">
<g clipPath="url(#clip0_15_405)">
<path d="M20.73 1.26553C20.5592 1.48835 20.4032 1.72595 20.2104 1.92661C20.0691 2.07434 19.8627 2.07557 19.719 1.92292C19.5778 1.77273 19.5851 1.57699 19.7313 1.4268C20.1563 0.988539 20.5887 0.557666 21.0236 0.129255C21.225 -0.0701774 21.424 -0.0209347 21.6095 0.163725C22.0124 0.567515 22.4153 0.970073 22.8157 1.37509C22.9754 1.53636 23.0553 1.72102 22.8735 1.90938C22.6696 2.12112 22.4681 2.03618 22.2949 1.85398C22.118 1.66686 21.9522 1.46989 21.7815 1.27784C21.736 1.30369 21.6906 1.32954 21.6451 1.35663C21.6451 2.93485 21.6537 4.51308 21.6365 6.09131C21.6328 6.39661 21.8281 6.90504 21.2975 6.90997C20.7816 6.91489 20.9327 6.41385 20.9302 6.09869C20.9179 4.53155 20.9253 2.96563 20.9253 1.39848C20.8602 1.35417 20.7951 1.31108 20.7312 1.26676L20.73 1.26553Z" fill="#020202"/>
<path d="M17.5682 4.2447C17.2439 4.35796 17.1174 4.60417 16.9257 4.7716C16.7353 4.93656 16.54 5.02643 16.3398 4.82453C16.1568 4.6411 16.2391 4.45152 16.3975 4.29148C16.798 3.88646 17.2009 3.48636 17.6026 3.08257C17.8151 2.8696 18.0276 2.87329 18.2376 3.08381C18.6258 3.47159 19.014 3.85938 19.4021 4.24716C19.5778 4.42197 19.6822 4.63002 19.4832 4.83192C19.2854 5.03381 19.0717 4.93902 18.9009 4.75559C18.74 4.58324 18.5914 4.39982 18.4366 4.22131C18.3863 4.24839 18.3347 4.27548 18.2843 4.30256C18.2843 5.26649 18.2843 6.23041 18.2843 7.19557C18.2843 7.37899 18.2892 7.56242 18.2782 7.74462C18.2647 7.97114 18.1639 8.15333 17.9146 8.14472C17.6726 8.1361 17.5706 7.96621 17.5706 7.72862C17.5706 6.95551 17.5682 6.1824 17.5669 5.40929C17.5669 5.03258 17.5669 4.65588 17.5669 4.24347L17.5682 4.2447Z" fill="#030303"/>
<path d="M17.6603 11.8601C17.379 11.8416 17.2254 11.817 17.2193 11.4649C17.2095 10.9466 17.4551 10.3213 17.0903 9.93224C16.7329 9.55061 16.0916 9.69957 15.5757 9.62694C15.2637 9.58262 15.1888 9.39304 15.0426 9.16283C14.4481 8.22722 14.5893 7.44549 15.4197 6.7524C15.4345 6.74009 15.4443 6.72039 15.459 6.70562C15.7207 6.42494 15.6826 6.18734 15.4025 5.92513C14.9407 5.49548 14.4886 5.05107 14.0673 4.58203C13.7528 4.23241 13.4654 4.19917 13.1497 4.54018C12.4999 5.24311 11.8329 5.51395 10.9018 4.9415C10.5308 4.71376 10.3281 4.55002 10.2839 4.12654C10.0984 2.35257 10.2397 2.72312 8.67966 2.6985C7.1528 2.67511 7.1528 2.69358 6.93292 4.17824C6.91818 4.27919 6.88624 4.37768 6.8801 4.47862C6.86904 4.65959 6.77569 4.7236 6.61354 4.8184C5.66524 5.36745 4.79433 5.47948 4.04134 4.50571C4.02905 4.4897 4.00817 4.48109 3.99343 4.46754C3.71091 4.19917 3.47506 4.25334 3.2171 4.53156C2.78717 4.99444 2.34496 5.44624 1.87695 5.86973C1.52564 6.18857 1.49738 6.48034 1.84501 6.78933C2.59923 7.4615 2.80068 8.18167 2.21475 9.09758C2.02804 9.38934 1.91503 9.5937 1.54406 9.64541C-0.0012284 9.86207 3.09512e-09 9.87438 3.09512e-09 11.3935C3.09512e-09 12.339 0.47497 12.8774 1.42491 13.0087C1.52564 13.0222 1.62513 13.0592 1.72586 13.0604C1.96171 13.0641 2.02927 13.2081 2.14473 13.3989C2.72452 14.3481 2.70733 15.1766 1.80693 15.9238C1.50107 16.1774 1.52318 16.4594 1.83641 16.7474C2.30074 17.1746 2.75032 17.6202 3.17165 18.0893C3.49471 18.4488 3.78952 18.4475 4.09047 18.1114C4.74274 17.3839 5.42448 17.1648 6.33839 17.7274C6.67988 17.9379 6.88624 18.0856 6.94029 18.4869C7.14051 19.9679 7.15034 19.9667 8.62316 19.9667C10.096 19.9667 10.1562 19.9667 10.2667 18.7738C10.3085 18.3146 10.2937 17.8381 10.9251 17.7347C11.1094 17.7052 11.204 17.507 11.145 17.294C11.102 17.1389 10.9841 17.0613 10.8355 17.0404C10.3195 16.9678 9.69675 17.4516 9.61077 17.9871C9.39826 19.2982 9.39826 19.2846 8.07899 19.2551C7.7547 19.2477 7.62326 19.1394 7.65274 18.8439C7.76821 17.688 7.19579 17.2152 6.13816 16.7954C5.27094 16.452 4.72677 16.447 4.13346 17.0934C4.10644 17.1229 4.06468 17.1389 4.03888 17.1697C3.73547 17.5082 3.49963 17.4738 3.18025 17.1315C2.38304 16.2809 2.33759 16.2772 3.08812 15.3933C3.46155 14.9538 3.55122 14.6029 3.21219 14.1031C2.98985 13.7744 2.82894 13.3718 2.75769 12.9804C2.66433 12.4695 2.38304 12.3414 1.92363 12.2922C0.701399 12.1605 0.71614 12.1445 0.71614 10.8937C0.71614 10.5478 0.772645 10.3668 1.16572 10.3779C2.15825 10.4062 2.8965 10.0824 3.01196 8.95232C3.02302 8.83783 3.09426 8.71841 3.16797 8.62485C3.64457 8.01424 3.52911 7.47996 2.9788 6.98877C2.90387 6.92229 2.8621 6.81765 2.78594 6.7524C2.37198 6.39662 2.48008 6.13071 2.84982 5.78725C3.63966 5.05476 3.64334 5.00552 4.47618 5.71831C4.94419 6.1184 5.3385 6.2452 5.86669 5.85619C6.105 5.68014 6.41086 5.54596 6.70076 5.5041C7.38864 5.40315 7.61344 5.01044 7.67854 4.35675C7.78172 3.32881 7.82226 3.37313 8.84303 3.3165C9.42037 3.28449 9.66727 3.46053 9.64762 4.03052C9.64393 4.15239 9.67464 4.27427 9.67587 4.39614C9.68201 4.99936 9.91663 5.37976 10.5677 5.47948C10.8784 5.52626 11.1954 5.67645 11.4582 5.85619C11.9803 6.21319 12.3795 6.14179 12.8561 5.72815C13.6951 4.99936 13.7098 5.04491 14.5292 5.8291C14.8436 6.12948 14.9628 6.35723 14.5979 6.697C13.9064 7.33839 13.603 8.04502 14.3031 8.88707C14.3768 8.97571 14.4186 9.10866 14.4333 9.22561C14.5365 10.0369 15.0033 10.373 15.7981 10.3262C16.3914 10.2905 16.6162 10.5773 16.5154 11.1658C16.4589 11.492 16.642 11.8429 16.0855 11.9844C13.291 12.6997 11.683 14.9661 11.8439 17.8738C11.9987 20.6598 14.4395 22.9409 17.3298 23C20.1723 23.0579 22.6978 20.8703 22.9705 18.1164C23.2973 14.811 20.9818 12.0768 17.6615 11.8626L17.6603 11.8601ZM22.247 17.6953C22.1549 20.3495 19.9168 22.3746 17.164 22.2909C14.5476 22.2121 12.4041 19.9273 12.4913 17.31C12.5822 14.582 14.8092 12.4818 17.519 12.5704C20.3418 12.6627 22.3465 14.8356 22.247 17.6966V17.6953Z" fill="black"/>
<path d="M8.61947 6.61576C6.0399 6.61329 3.91973 8.72826 3.91359 11.311C3.90745 13.9024 6.0055 16.0297 8.58139 16.042C11.1647 16.0543 13.2983 13.9529 13.3168 11.3763C13.3364 8.75042 11.2322 6.61822 8.61824 6.61576H8.61947ZM8.71529 15.2948C6.52879 15.3058 4.72063 13.4974 4.7194 11.2987C4.7194 9.08404 6.49685 7.30392 8.70546 7.31008C10.9116 7.31623 12.6829 9.10497 12.6743 11.3197C12.6657 13.4863 10.8748 15.2837 8.71529 15.2948Z" fill="black"/>
<path d="M17.7291 13.4161C17.7131 13.6796 17.5854 13.8101 17.3864 13.8064C17.1554 13.8027 17.0068 13.634 17.0289 13.4112C17.0473 13.2278 17.1849 13.0813 17.4048 13.101C17.6173 13.1207 17.7107 13.2598 17.7291 13.4149V13.4161Z" fill="#141414"/>
<path d="M20.1551 14.3025C20.3578 14.3013 20.5002 14.3998 20.5224 14.6128C20.5445 14.8319 20.4057 14.9587 20.2054 14.9796C19.9966 15.0018 19.8467 14.8774 19.8295 14.6706C19.8136 14.4675 19.9266 14.3284 20.1551 14.3025Z" fill="#0F0F0F"/>
<path d="M13.7897 17.4073C13.7737 17.6227 13.6791 17.7618 13.4715 17.7864C13.2676 17.8098 13.1141 17.7163 13.0833 17.5082C13.0477 17.2694 13.1755 17.1303 13.4138 17.1118C13.6287 17.0958 13.7307 17.2349 13.7897 17.4073Z" fill="#111111"/>
<path d="M20.16 19.8595C20.343 19.8879 20.4941 19.9753 20.5236 20.1784C20.5531 20.3877 20.4327 20.5292 20.2362 20.5625C19.9954 20.6031 19.8517 20.4443 19.8296 20.2301C19.8087 20.0294 19.9586 19.9112 20.16 19.8583V19.8595Z" fill="#141414"/>
<path d="M17.7241 21.3528C17.7192 21.5867 17.5939 21.7062 17.3863 21.716C17.1714 21.7271 17.0326 21.5941 17.0289 21.3873C17.0252 21.1817 17.1542 21.0475 17.3704 21.0401C17.589 21.0315 17.7057 21.1485 17.7241 21.3541V21.3528Z" fill="#0F0F0F"/>
<path d="M21.6758 17.4627C21.6524 17.6535 21.5554 17.7889 21.3318 17.7877C21.1132 17.7877 20.9904 17.6658 20.9904 17.4528C20.9904 17.2423 21.1058 17.1155 21.3282 17.1143C21.5517 17.113 21.6512 17.2435 21.6746 17.4627H21.6758Z" fill="#0D0D0D"/>
<path d="M14.9149 14.5549C14.9284 14.8269 14.8142 14.9587 14.6078 14.9784C14.4002 14.9981 14.2479 14.8836 14.2332 14.6731C14.2196 14.4699 14.3314 14.3296 14.5488 14.3074C14.7675 14.2853 14.8866 14.3936 14.9161 14.5549H14.9149Z" fill="#090909"/>
<path d="M14.9198 20.2732C14.8977 20.4837 14.7822 20.5982 14.5648 20.5933C14.3412 20.5883 14.2295 20.4369 14.2319 20.2436C14.2344 20.0418 14.3695 19.9125 14.5881 19.9223C14.8019 19.9334 14.9124 20.0541 14.9198 20.2732Z" fill="#090909"/>
<path d="M8.58304 13.4364V9.07273H8.86258V13.4364H8.58304ZM9.32452 10.5131C9.31088 10.3756 9.25236 10.2687 9.14895 10.1926C9.04554 10.1165 8.9052 10.0784 8.72792 10.0784C8.60747 10.0784 8.50577 10.0955 8.42281 10.1295C8.33986 10.1625 8.27622 10.2085 8.2319 10.2676C8.18872 10.3267 8.16713 10.3937 8.16713 10.4687C8.16486 10.5312 8.17792 10.5858 8.20633 10.6324C8.23588 10.679 8.27622 10.7193 8.32736 10.7534C8.37849 10.7864 8.43758 10.8153 8.50463 10.8403C8.57167 10.8642 8.64327 10.8847 8.7194 10.9017L9.03304 10.9767C9.18531 11.0108 9.32508 11.0562 9.45236 11.1131C9.57963 11.1699 9.68986 11.2398 9.78304 11.3227C9.87622 11.4057 9.94838 11.5034 9.99952 11.6159C10.0518 11.7284 10.0785 11.8574 10.0796 12.0028C10.0785 12.2165 10.0239 12.4017 9.91599 12.5585C9.80917 12.7142 9.65463 12.8352 9.45236 12.9216C9.25122 13.0068 9.00861 13.0494 8.72452 13.0494C8.4427 13.0494 8.19724 13.0063 7.98815 12.9199C7.7802 12.8335 7.6177 12.7057 7.50065 12.5364C7.38474 12.3659 7.32395 12.1551 7.31827 11.904H8.03247C8.04042 12.021 8.07395 12.1187 8.13304 12.1972C8.19327 12.2744 8.27338 12.333 8.37338 12.3727C8.47452 12.4114 8.58872 12.4307 8.71599 12.4307C8.84099 12.4307 8.94952 12.4125 9.04156 12.3761C9.13474 12.3398 9.2069 12.2892 9.25804 12.2244C9.30917 12.1597 9.33474 12.0852 9.33474 12.0011C9.33474 11.9227 9.31145 11.8568 9.26486 11.8034C9.2194 11.75 9.15236 11.7045 9.06372 11.667C8.97622 11.6295 8.86883 11.5955 8.74156 11.5648L8.36145 11.4693C8.06713 11.3977 7.83474 11.2858 7.66429 11.1335C7.49383 10.9812 7.40917 10.7761 7.41031 10.5182C7.40917 10.3068 7.46542 10.1222 7.57906 9.9642C7.69383 9.80625 7.85122 9.68295 8.05122 9.59432C8.25122 9.50568 8.47849 9.46136 8.73304 9.46136C8.99213 9.46136 9.21827 9.50568 9.41145 9.59432C9.60577 9.68295 9.7569 9.80625 9.86486 9.9642C9.97281 10.1222 10.0285 10.3051 10.0319 10.5131H9.32452Z" fill="#121212"/>
<line x1="17.4689" y1="15.25" x2="17.4689" y2="17.45" stroke="#121212" stroke-width="0.5" stroke-linecap="round"/>
<line x1="19.5689" y1="17.95" x2="17.3689" y2="17.95" stroke="#121212" stroke-width="0.5" stroke-linecap="round"/>
<path d="M17.4537 18.4058C17.1576 18.38 16.9906 18.1904 17.0004 17.8913C17.0102 17.5884 17.2105 17.4013 17.5139 17.4136C17.8148 17.4271 17.9917 17.6167 17.9819 17.9319C17.9721 18.2532 17.7829 18.3972 17.4537 18.4046V18.4058Z" fill="#121212"/>
</g>
<defs>
<clipPath id="clip0_15_405">
<rect width="23" height="23" fill="white"/>
</clipPath>
</defs>
</svg>
