<svg width="120" height="90" viewBox="0 0 77 58" fill="none" xmlns="http://www.w3.org/2000/svg">
<path d="M113.305 0.761322H39.2614V39.4491H113.305V0.761322Z" fill="#FFAF21"/>
<path d="M41.8087 0.761322H39.2614V39.4491H41.8087V0.761322Z" fill="#F58027"/>
<path d="M109.971 3.59207H43.9083V36.8918H109.971V3.59207Z" fill="#BA3A1B"/>
<path d="M109.769 4.24603H44.3902V36.6917H109.769V4.24603Z" fill="#F58027"/>
<path d="M36.4438 20.7568L33.4785 21.6256V35.6814H36.4438V20.7568Z" fill="#595959"/>
<path d="M36.0255 22.3283H36.5467C36.5467 22.3283 36.9254 22.5821 36.5172 22.9384H36.0648L36.0255 22.3283Z" fill="#727271"/>
<path d="M35.1944 21.2351C35.1452 21.2351 35.0961 21.2449 35.0469 21.2498V24.0219C35.0961 24.0268 35.1452 24.0316 35.1944 24.0316C35.814 24.0316 36.1533 23.4997 36.3254 22.9042V22.3625C36.3254 21.7378 35.814 21.2351 35.1944 21.2351Z" fill="black"/>
<path d="M35.0469 21.2498C35.0469 21.2498 34.3928 21.4547 34.3928 22.6358C34.3928 23.9389 35.0469 24.0219 35.0469 24.0219V21.2498Z" fill="#ED3A0F"/>
<g style="mix-blend-mode:screen">
<path d="M34.9338 21.4499C34.9338 21.4499 34.4715 21.9037 34.5207 22.9823C34.5207 22.9823 34.5994 22.3284 34.9338 22.1185V21.4499Z" fill="#FFD4A8"/>
</g>
<path d="M33.2567 6.3251H33.6009C33.6009 6.3251 33.8468 6.48616 33.5812 6.72043H33.2862L33.2616 6.3251H33.2567Z" fill="#727271"/>
<path d="M32.7065 5.60284C32.672 5.60284 32.6425 5.60772 32.613 5.61261V7.43792C32.6425 7.4428 32.672 7.44768 32.7065 7.44768C33.1195 7.44768 33.3359 7.10116 33.4539 6.70096V6.34468C33.4539 5.93472 33.1195 5.60284 32.7065 5.60284Z" fill="black"/>
<path d="M32.6077 5.61261C32.6077 5.61261 32.175 5.74438 32.175 6.52527C32.175 7.38424 32.6077 7.43792 32.6077 7.43792V5.61261Z" fill="#ED3A0F"/>
<g style="mix-blend-mode:screen">
<path d="M32.5343 5.74435C32.5343 5.74435 32.2294 6.04207 32.2638 6.75462C32.2638 6.75462 32.3081 6.32513 32.5343 6.1836V5.74435Z" fill="#FFD4A8"/>
</g>
<path d="M36.4438 5.18311L33.4785 6.05184V20.1028H36.4438V5.18311Z" fill="#595959"/>
<path d="M36.409 5.18311L33.4437 6.05184V20.1028H36.409V5.18311Z" fill="#595959"/>
<g style="mix-blend-mode:multiply">
<path d="M35.4159 5.4857V20.1028H36.4437V5.18311L35.4159 5.4857Z" fill="#595959"/>
</g>
<g style="mix-blend-mode:multiply">
<path d="M35.4159 21.0594V35.6814H36.4437V20.7568L35.4159 21.0594Z" fill="#595959"/>
</g>
<path d="M40.9279 0H36.2513V39.4492H40.9279V0Z" fill="#FFAF21"/>
<g style="mix-blend-mode:screen">
<path d="M37.5305 0.200073H36.6601V39.0441H37.5305V0.200073Z" fill="#FAB173"/>
</g>
<path d="M7.31176 33.8561L10.7836 37.5604H6.82001L7.31176 33.8561Z" fill="#0F0F0F"/>
<path d="M11.4578 21.0107L10.9808 23.2654L11.2169 23.6071L11.7431 21.3816L11.4578 21.0107Z" fill="#2B2B2B"/>
<path d="M14.275 24.7198L11.9687 24.4319L11.7179 24.1L14.0095 24.3294L14.275 24.7198Z" fill="#2B2B2B"/>
<path d="M6.599 36.7844H26.4463V39.659H8.16278L6.599 36.7844Z" fill="#23211F"/>
<g style="mix-blend-mode:multiply">
<path d="M6.599 38.1803H26.4463V39.6591H8.16278L6.599 38.1803Z" fill="#696969"/>
</g>
<path d="M8.46808 25.1298L12.2497 22.3284L13.1103 23.3972L9.77123 26.7794L8.46808 25.1298Z" fill="#525252"/>
<g style="mix-blend-mode:multiply" opacity="0.4">
<path d="M9.26923 26.14L9.77573 26.7794L13.1098 23.3972L12.6328 22.8018C11.969 23.446 9.72164 25.6666 9.26923 26.14Z" fill="#525252"/>
</g>
<g style="mix-blend-mode:multiply">
<path d="M12.83 23.6803L13.1103 23.3972L12.2497 22.3284L12.0235 22.4992C12.2792 22.8945 12.5497 23.2898 12.83 23.6803Z" fill="#525252"/>
</g>
<g style="mix-blend-mode:multiply">
<path d="M10.0565 23.9487L8.46808 25.1298L9.77615 26.7794L11.1924 25.3396C10.799 24.8858 10.4204 24.4221 10.0565 23.9487Z" fill="#525252"/>
</g>
<path d="M8.04968 23.4997L8.94468 23.0263L11.4575 26.2084L10.8625 27.2284L8.04968 23.4997Z" fill="#0F0F0F"/>
<path d="M14.7031 24.0902C15.0277 24.5246 15.1064 25.0126 14.8703 25.1835C14.6441 25.3543 14.1917 25.1444 13.8622 24.7149L11.2805 21.2644C10.9609 20.8349 10.8822 20.3469 11.1084 20.1712C11.3445 20.0004 11.7919 20.2102 12.1165 20.6446L14.7031 24.0902Z" fill="#0F0F0F"/>
<path d="M5.03524 25.4958L5.61059 22.8603L8.15297 23.0311L11.0937 26.8135C11.0937 26.8135 11.3494 27.0283 11.0937 27.6383C10.8429 28.2435 7.14979 37.9655 7.14979 37.9655L3.41736 35.9743L5.03032 25.5007L5.03524 25.4958Z" fill="#914A17"/>
<g style="mix-blend-mode:multiply" opacity="0.5">
<path d="M5.03524 25.4958L5.61059 22.8603L7.31206 22.9726L4.75493 34.3637C4.75493 34.3637 7.84808 36.1256 7.74973 36.3745C7.5186 36.9894 7.14979 37.9606 7.14979 37.9606L3.41736 35.9694L5.03032 25.4958H5.03524Z" fill="#914A17"/>
</g>
<path d="M28.6644 30.2299C28.6644 30.2299 20.162 30.8741 16.5525 31.4598C16.5525 31.4598 15.3723 31.6697 15.0477 33.2705C14.7232 34.8762 14.2363 40.274 14.2363 40.274H24.3075L28.6644 30.2299Z" fill="#363432"/>
<path d="M26.5739 35.0421L28.6638 30.2299C28.6638 30.2299 20.1614 30.8741 16.5519 31.4598C16.5519 31.4598 15.3717 31.6697 15.0471 33.2705C14.9635 33.6756 14.875 34.31 14.7865 35.0372H26.5739V35.0421Z" fill="#5C5C5C"/>
<g style="mix-blend-mode:multiply">
<path d="M25.0888 31.084C25.0888 31.084 20.1565 31.4451 17.0191 31.9576C17.0191 31.9576 15.9913 32.1431 15.711 33.5389C15.4307 34.9298 15.0815 38.7952 15.0815 38.7952H21.7842L22.512 33.3729L25.0101 31.6111L25.0937 31.0889L25.0888 31.084Z" fill="#696969"/>
</g>
<g style="mix-blend-mode:multiply">
<path d="M17.1666 32.27C19.9351 31.821 24.1003 31.4891 25.0396 31.4159L25.0937 31.0791C25.0937 31.0791 20.1613 31.4403 17.0239 31.9527C17.0239 31.9527 15.9962 32.1382 15.7159 33.534C15.4356 34.925 15.0864 38.7903 15.0864 38.7903H15.2635C15.352 37.8386 15.6274 35.0031 15.8585 33.8513C16.1388 32.4603 17.1715 32.27 17.1715 32.27H17.1666Z" fill="#696969"/>
</g>
<g style="mix-blend-mode:screen">
<path d="M9.9577 24.1244L12.0968 22.5138L12.1804 22.6261L10.1839 24.4075L9.9577 24.1244Z" fill="#525252"/>
</g>
<path d="M17.0931 29.2001C17.0931 29.2001 14.3491 29.3758 14.236 30.4105C14.1327 31.4452 15.1851 31.5965 16.3013 31.5476L24.8825 30.5423C24.8825 30.5423 25.4529 30.4788 25.6644 29.8736C25.8807 29.2733 26.9183 23.7047 27.2036 20.9374C27.2036 20.9374 27.2822 19.3708 26.3086 19.3366C25.3398 19.2976 24.4055 19.9076 24.0514 21.0106C23.6875 22.1136 23.0089 27.8824 24.1203 29.166C24.1203 29.166 23.5252 28.7169 21.2877 28.839C19.6699 28.9317 17.0881 29.2001 17.0881 29.2001H17.0931Z" fill="#303030"/>
<path d="M26.3135 19.3366C25.9103 19.322 25.512 19.4196 25.1579 19.6148C25.1825 19.6148 25.212 19.605 25.2415 19.605C25.7136 19.5855 26.3381 19.8832 26.3233 20.4298C26.3184 20.8203 26.166 21.1717 26.043 21.5328C25.8808 22.0404 25.7185 22.5529 25.6349 23.08C25.4628 24.1927 25.4136 25.3152 25.3841 26.4329C25.3743 26.9551 25.4185 27.6188 24.9661 27.9897C24.6317 28.2631 24.0514 28.063 23.8056 27.7652C23.7121 27.6481 23.6334 27.5163 23.5794 27.3894C23.658 28.1703 23.8301 28.8194 24.1203 29.1562C24.1203 29.1562 23.7908 28.9073 22.6991 28.8292C22.4631 29.2636 22.3647 29.7565 21.8631 29.981C21.2484 30.2592 20.4026 30.2836 19.7437 30.3861C18.7405 30.5423 17.7373 30.674 16.7341 30.8009C15.9424 30.9034 15.1408 30.9425 14.3442 31.001C14.6441 31.4891 15.4506 31.572 16.2964 31.533L24.8776 30.5276C24.8776 30.5276 25.448 30.4642 25.6595 29.859C25.8759 29.2587 26.9135 23.69 27.1987 20.9228C27.1987 20.9228 27.2774 19.3561 26.3037 19.322L26.3135 19.3366Z" fill="#0F0F0F"/>
<path d="M26.4462 30.4105C26.4462 30.4105 25.3447 28.4534 23.7711 28.4144C22.1876 28.3802 22.8712 30.7814 22.8712 30.7814L26.4512 30.4105H26.4462Z" fill="#262626"/>
<g style="mix-blend-mode:screen">
<path d="M25.3792 19.7222C25.3792 19.7222 24.5628 19.7954 24.1153 21.5475C23.6678 23.3093 23.5695 27.0381 23.8203 27.5115C23.8203 27.5115 23.958 21.5182 25.3792 19.7173V19.7222Z" fill="#303030"/>
</g>
<path d="M24.6366 29.6882C24.6366 29.9517 24.4252 30.1567 24.1596 30.1567C23.8941 30.1567 23.6826 29.9468 23.6826 29.6882C23.6826 29.4295 23.8941 29.2196 24.1596 29.2196C24.4252 29.2196 24.6366 29.4295 24.6366 29.6882Z" fill="black"/>
<path d="M24.42 29.6881C24.42 29.8296 24.3069 29.9419 24.1643 29.9419C24.0217 29.9419 23.9086 29.8296 23.9086 29.6881C23.9086 29.5466 24.0217 29.4343 24.1643 29.4343C24.3069 29.4343 24.42 29.5466 24.42 29.6881Z" fill="#262626"/>
<g style="mix-blend-mode:screen">
<path d="M14.3494 30.6399C14.3494 30.6399 14.1871 29.6394 16.9557 29.2929C16.9557 29.2929 21.4897 28.8536 21.9519 28.9171C21.9519 28.9171 16.8082 29.3856 15.8246 29.6833C14.8411 29.9859 14.3494 30.635 14.3494 30.635V30.6399Z" fill="#303030"/>
</g>
<path d="M14.5507 49.5518H39.8614L33.085 39.1808L17.1079 39.21L14.5507 49.5518Z" fill="#292929"/>
<path d="M116.9 39.4541H36.2126V46.0818H116.9V39.4541Z" fill="#292929"/>
<path d="M116.9 39.4541H36.2126V41.8894H116.9V39.4541Z" fill="black"/>
<path style="mix-blend-mode:multiply" d="M65.1422 39.4541C64.916 40.6596 64.6209 42.1481 64.4439 42.7533C64.1242 43.8368 63.8685 43.9393 62.7178 43.9393H60.1017L60.1115 46.0623H63.5981C64.5521 46.0623 65.4274 46.0818 65.9339 44.5835C66.2683 43.5781 67.0551 41.0256 67.5272 39.4541H65.1373H65.1422Z" fill="url(#paint0_linear_1_283)"/>
<path d="M65.4082 39.4541C65.177 40.6644 64.8082 42.4898 64.6115 43.1291C64.3017 44.1101 64.0608 44.2126 62.9789 44.2126H60.5103L60.3431 45.6865H63.6329C64.5378 45.6865 65.2852 45.7109 65.7671 44.3492C66.0966 43.3829 66.8441 40.8499 67.2424 39.4541H65.4032H65.4082Z" fill="#525252"/>
<path d="M43.9086 39.4541L46.028 47.3507L46.6624 47.9803H59.4726L60.1857 47.1897L61.0266 39.4541H43.9086Z" fill="#818080"/>
<g style="mix-blend-mode:multiply" opacity="0.4">
<path d="M43.9086 39.4541L44.4544 41.4795H60.8053L61.0266 39.4541H43.9086Z" fill="#818080"/>
</g>
<path d="M46.6821 40.7718C46.6821 41.3819 46.1805 41.8748 45.5756 41.8748C44.9707 41.8748 44.4642 41.3868 44.4642 40.7718C44.4642 40.1569 44.9609 39.6737 45.5756 39.6737C46.1903 39.6737 46.6821 40.1666 46.6821 40.7718Z" fill="black"/>
<path d="M48.9789 40.7474C48.9789 41.3574 48.4822 41.8504 47.8675 41.8504C47.2528 41.8504 46.761 41.3574 46.761 40.7474C46.761 40.1373 47.2626 39.6541 47.8675 39.6541C48.4724 39.6541 48.9789 40.1471 48.9789 40.7474Z" fill="black"/>
<path d="M48.792 40.7425C48.792 41.2452 48.374 41.66 47.8675 41.66C47.361 41.66 46.9479 41.2452 46.9479 40.7425C46.9479 40.2398 47.361 39.825 47.8675 39.825C48.374 39.825 48.792 40.2349 48.792 40.7425Z" fill="#427724"/>
<path d="M46.4906 40.762C46.4906 41.2696 46.0824 41.6796 45.5759 41.6796C45.0694 41.6796 44.6465 41.2696 44.6465 40.762C44.6465 40.2544 45.0645 39.8445 45.5759 39.8445C46.0873 39.8445 46.4906 40.2544 46.4906 40.762Z" fill="#BE3324"/>
<path d="M45.1527 42.6459L46.2297 47.1751L46.7853 47.8583H59.0743L59.9988 47.1555L60.8102 39.6103L59.6546 46.6919L58.5776 47.6485H47.1935L46.4804 46.9994L45.1527 42.6459Z" fill="#4B4B4B"/>
<path d="M30.4243 7.90641C30.0359 7.68678 29.6228 7.51596 29.1949 7.39395H10.582C10.582 7.39395 8.34942 7.54037 7.85275 9.49745L3.54988 28.4875C3.54988 28.4875 2.89093 29.9078 1.64679 30.4934C1.64679 30.4934 0.653442 31.1767 0.653442 32.8312V49.054H14.5505L17.2207 38.7366H31.4275V10.1173C31.3783 9.84885 31.3193 9.5853 31.2357 9.32663C31.039 8.71657 30.7784 8.25292 30.4243 7.90153V7.90641ZM19.4779 27.4138H6.06767C5.92507 27.3455 5.78246 27.2772 5.64476 27.1893C5.04974 26.8184 4.83828 26.1742 4.76452 25.5153C5.88081 21.894 8.6248 10.8054 8.6248 10.8054C8.6248 10.8054 9.21983 8.74585 11.6196 8.658C12.7949 8.60432 16.4634 8.60432 19.4828 8.61896V27.4138H19.4779ZM29.2785 27.4138H20.8253V8.61896C23.4562 8.62872 25.6199 8.65312 25.6199 8.65312C25.6199 8.65312 29.0818 8.55063 29.2785 11.967V27.4089V27.4138Z" fill="#4CBEED"/>
<path d="M11.6196 8.658C9.21983 8.75073 8.62481 10.8054 8.62481 10.8054C8.62481 10.8054 5.88081 21.8988 4.76453 25.5153C4.83829 26.1693 5.04974 26.8184 5.64477 27.1893C5.78246 27.2723 5.92507 27.3455 6.06768 27.4138H19.4779V8.61407C16.4585 8.59943 12.79 8.60431 11.6147 8.65312L11.6196 8.658Z" fill="#444342"/>
<g style="mix-blend-mode:multiply" opacity="0.6">
<path d="M19.4782 15.3297V8.61899C16.4589 8.60435 12.7904 8.60923 11.6151 8.65803C9.2153 8.75076 8.62027 10.8055 8.62027 10.8055C8.62027 10.8055 7.67119 14.6415 6.66309 18.5362C10.4594 16.2765 15.0672 15.2858 19.4782 15.3297Z" fill="#343432"/>
</g>
<path d="M25.6199 8.658C25.6199 8.658 23.4512 8.6336 20.8253 8.62384V27.4138H29.2785V11.9719C29.0818 8.55551 25.6199 8.658 25.6199 8.658Z" fill="#444342"/>
<g style="mix-blend-mode:multiply" opacity="0.6">
<path d="M29.2785 17.1159V11.9719C29.0818 8.55551 25.6199 8.658 25.6199 8.658C25.6199 8.658 23.4512 8.6336 20.8253 8.62384V15.3736C23.5938 15.5298 26.6083 16.0227 29.2785 17.1208V17.1159Z" fill="#343432"/>
</g>
<g style="mix-blend-mode:multiply" opacity="0.5">
<path d="M8.58552 10.0441C8.28063 10.0441 8.03967 9.67809 8.03967 9.23396C8.03967 8.78984 8.28555 8.4238 8.58552 8.4238C8.88549 8.4238 9.13137 8.78984 9.13137 9.23396C9.13137 9.67809 8.88549 10.0441 8.58552 10.0441Z" fill="#C0BAC4"/>
</g>
<path d="M4.63629 21.4402C4.63629 20.9472 4.77398 15.5152 4.77398 14.6221C4.77398 13.4654 4.93135 12.8212 5.6198 12.8065C6.44595 12.7773 6.76559 13.031 6.76559 15.0321V21.1327C6.76559 21.9087 6.50496 22.6945 5.76241 22.6945C5.01986 22.6945 4.64121 22.592 4.64121 21.4402H4.63629Z" fill="#262625"/>
<g style="mix-blend-mode:multiply" opacity="0.5">
<path d="M5.75749 22.6945C5.38867 22.6945 5.11329 22.6652 4.93134 22.509C5.07886 22.548 5.26573 22.5578 5.4821 22.5578C6.22957 22.5578 6.48528 21.7916 6.48528 21.0253V15.0613C6.48528 13.114 6.17056 12.8651 5.34441 12.8895C5.31982 12.8895 5.29524 12.8895 5.27065 12.8895C5.369 12.8358 5.4821 12.8114 5.61979 12.8114C6.44594 12.7821 6.76558 13.0359 6.76558 15.0369V21.1376C6.76558 21.9136 6.50495 22.6993 5.7624 22.6993L5.75749 22.6945Z" fill="#1D1D1B"/>
</g>
<path style="mix-blend-mode:multiply" d="M8.93464 9.24373C8.93464 8.86305 8.74286 8.56534 8.5019 8.56534C8.26094 8.56534 8.06915 8.86793 8.06915 9.24373C8.06915 9.61953 8.25602 9.91724 8.5019 9.91724C8.74778 9.91724 8.93464 9.61465 8.93464 9.24373Z" fill="url(#paint1_radial_1_283)"/>
<path d="M8.90487 9.24378C8.90487 8.89727 8.72784 8.6142 8.50163 8.6142C8.27542 8.6142 8.09839 8.89727 8.09839 9.24378C8.09839 9.5903 8.28034 9.86361 8.50163 9.86361C8.72292 9.86361 8.90487 9.58542 8.90487 9.24378Z" fill="#262625"/>
<g style="mix-blend-mode:multiply" opacity="0.5">
<path d="M8.44261 9.67812C8.29508 9.67812 8.17706 9.50242 8.17706 9.2828C8.17706 9.06318 8.3 8.8826 8.44261 8.8826C8.58522 8.8826 8.71308 9.0583 8.71308 9.2828C8.71308 9.5073 8.59014 9.67812 8.44261 9.67812Z" fill="#C0BAC4"/>
</g>
<g style="mix-blend-mode:multiply" opacity="0.5">
<path d="M5.29036 17.4234C5.14284 17.4234 5.0199 17.2477 5.0199 17.0232C5.0199 16.7987 5.14284 16.6279 5.29036 16.6279C5.43789 16.6279 5.55591 16.8036 5.55591 17.0232C5.55591 17.2428 5.43789 17.4234 5.29036 17.4234Z" fill="#C0BAC4"/>
</g>
<path d="M8.3052 8.98504H5.34483C4.75472 8.98504 4.33673 9.1217 4.05643 9.39989C3.65811 9.80009 3.66302 10.3613 3.67286 10.8543V11.0251C3.67286 11.3472 3.66302 11.8841 3.65811 12.5137C3.64335 13.3873 3.6286 14.4805 3.6286 15.4078C3.6286 16.9012 4.64162 17.3063 5.17763 17.3112C5.34975 17.3112 5.48744 17.1794 5.49236 17.0037C5.49236 16.828 5.35466 16.6865 5.18255 16.6865C5.0842 16.6865 4.25313 16.6182 4.25313 15.4029C4.25313 14.4805 4.2728 13.3921 4.28264 12.5234C4.29247 11.8938 4.29739 11.3521 4.29739 11.0202V10.8445C4.29739 10.4346 4.29247 10.0441 4.50393 9.83425C4.65637 9.67808 4.94159 9.60487 5.34483 9.60487H8.3052C8.48223 9.60487 8.61992 9.46333 8.61992 9.29252C8.61992 9.1217 8.48223 8.98016 8.3052 8.98016V8.98504Z" fill="#2C2D2B"/>
<path d="M8.51627 9.53652C8.46217 9.58044 8.38841 9.6146 8.30481 9.6146H5.34444C5.16741 9.6146 5.01497 9.62437 4.88711 9.65365C4.715 9.69269 4.58714 9.75126 4.50354 9.84399C4.29209 10.0539 4.29209 10.4443 4.297 10.8543V11.03C4.297 11.3569 4.29209 11.9036 4.28225 12.5332C4.2675 13.4019 4.25274 14.4902 4.25274 15.4127C4.25274 16.623 5.08381 16.6913 5.18216 16.6962C5.35428 16.6962 5.49197 16.8378 5.49197 17.0135C5.49197 17.0818 5.46246 17.1501 5.42312 17.1989H5.41329C4.87727 17.1989 3.86426 16.7938 3.86426 15.3053C3.86426 14.3829 3.87901 13.2994 3.89376 12.4258C3.9036 11.806 3.90852 11.2691 3.90852 10.947V10.7859C3.9036 10.2832 3.89868 9.72198 4.297 9.32665C4.40027 9.2144 4.53305 9.13631 4.69041 9.06311C4.87727 9.00942 5.09857 8.9899 5.35428 8.9899H8.31465C8.49168 8.9899 8.62937 9.13143 8.62937 9.30225C8.62937 9.39498 8.58511 9.47307 8.52119 9.5414L8.51627 9.53652Z" fill="#686867"/>
<g style="mix-blend-mode:multiply" opacity="0.5">
<path d="M8.51629 9.5366C8.46712 9.58052 8.38844 9.61468 8.30484 9.61468H5.34447C5.16744 9.61468 5.01499 9.62444 4.88714 9.65373C4.71502 9.69277 4.58716 9.75134 4.50357 9.84407C4.29211 10.0539 4.29211 10.4444 4.29703 10.8543V11.03C4.29703 11.357 4.29211 11.9036 4.28228 12.5332C4.26752 13.402 4.25277 14.4903 4.25277 15.4127C4.25277 16.3351 4.74944 16.5987 5.02483 16.667C4.79862 16.6377 4.15442 16.4523 4.15442 15.3883C4.15442 14.4708 4.16917 13.3873 4.18392 12.5088C4.19376 11.8841 4.20359 11.3375 4.20359 11.0105C4.20359 10.9519 4.20359 10.8934 4.20359 10.8348C4.20359 10.42 4.19868 10.0344 4.40521 9.82455C4.48881 9.7367 4.61667 9.66837 4.7937 9.63421C4.92156 9.60492 5.074 9.59028 5.25103 9.59028H8.21141C8.42778 9.59028 8.58514 9.46827 8.52121 9.53172L8.51629 9.5366Z" fill="#C0BAC4"/>
</g>
<g style="mix-blend-mode:multiply" opacity="0.5">
<path d="M8.51667 9.53656C8.46258 9.58048 8.38881 9.61465 8.30522 9.61465H5.34485C5.16781 9.61465 5.01537 9.62441 4.88751 9.65369C5.04979 9.57072 5.276 9.53656 5.58581 9.53656H8.52159H8.51667Z" fill="#C0BAC4"/>
</g>
<g style="mix-blend-mode:multiply" opacity="0.5">
<path d="M8.58552 10.0441C8.28063 10.0441 8.03967 9.67809 8.03967 9.23396C8.03967 8.78984 8.28555 8.4238 8.58552 8.4238C8.88549 8.4238 9.13137 8.78984 9.13137 9.23396C9.13137 9.67809 8.88549 10.0441 8.58552 10.0441Z" fill="#C0BAC4"/>
</g>
<path d="M4.63629 21.4402C4.63629 20.9472 4.77398 15.5152 4.77398 14.6221C4.77398 13.4654 4.93135 12.8212 5.6198 12.8065C6.44595 12.7773 6.76559 13.031 6.76559 15.0321V21.1327C6.76559 21.9087 6.50496 22.6945 5.76241 22.6945C5.01986 22.6945 4.64121 22.592 4.64121 21.4402H4.63629Z" fill="#262625"/>
<g style="mix-blend-mode:multiply" opacity="0.5">
<path d="M5.75749 22.6945C5.38867 22.6945 5.11329 22.6652 4.93134 22.509C5.07886 22.548 5.26573 22.5578 5.4821 22.5578C6.22957 22.5578 6.48528 21.7916 6.48528 21.0253V15.0613C6.48528 13.114 6.17056 12.8651 5.34441 12.8895C5.31982 12.8895 5.29524 12.8895 5.27065 12.8895C5.369 12.8358 5.4821 12.8114 5.61979 12.8114C6.44594 12.7821 6.76558 13.0359 6.76558 15.0369V21.1376C6.76558 21.9136 6.50495 22.6993 5.7624 22.6993L5.75749 22.6945Z" fill="#1D1D1B"/>
</g>
<path style="mix-blend-mode:multiply" d="M8.93464 9.24373C8.93464 8.86305 8.74286 8.56534 8.5019 8.56534C8.26094 8.56534 8.06915 8.86793 8.06915 9.24373C8.06915 9.61953 8.25602 9.91724 8.5019 9.91724C8.74778 9.91724 8.93464 9.61465 8.93464 9.24373Z" fill="url(#paint2_radial_1_283)"/>
<path d="M8.90487 9.24378C8.90487 8.89727 8.72784 8.6142 8.50163 8.6142C8.27542 8.6142 8.09839 8.89727 8.09839 9.24378C8.09839 9.5903 8.28034 9.86361 8.50163 9.86361C8.72292 9.86361 8.90487 9.58542 8.90487 9.24378Z" fill="#262625"/>
<g style="mix-blend-mode:multiply" opacity="0.5">
<path d="M8.44261 9.67812C8.29508 9.67812 8.17706 9.50242 8.17706 9.2828C8.17706 9.06318 8.3 8.8826 8.44261 8.8826C8.58522 8.8826 8.71308 9.0583 8.71308 9.2828C8.71308 9.5073 8.59014 9.67812 8.44261 9.67812Z" fill="#C0BAC4"/>
</g>
<g style="mix-blend-mode:multiply" opacity="0.5">
<path d="M5.29036 17.4234C5.14284 17.4234 5.0199 17.2477 5.0199 17.0232C5.0199 16.7987 5.14284 16.6279 5.29036 16.6279C5.43789 16.6279 5.55591 16.8036 5.55591 17.0232C5.55591 17.2428 5.43789 17.4234 5.29036 17.4234Z" fill="#C0BAC4"/>
</g>
<path d="M8.3052 8.98504H5.34483C4.75472 8.98504 4.33673 9.1217 4.05643 9.39989C3.65811 9.80009 3.66302 10.3613 3.67286 10.8543V11.0251C3.67286 11.3472 3.66302 11.8841 3.65811 12.5137C3.64335 13.3873 3.6286 14.4805 3.6286 15.4078C3.6286 16.9012 4.64162 17.3063 5.17763 17.3112C5.34975 17.3112 5.48744 17.1794 5.49236 17.0037C5.49236 16.828 5.35466 16.6865 5.18255 16.6865C5.0842 16.6865 4.25313 16.6182 4.25313 15.4029C4.25313 14.4805 4.2728 13.3921 4.28264 12.5234C4.29247 11.8938 4.29739 11.3521 4.29739 11.0202V10.8445C4.29739 10.4346 4.29247 10.0441 4.50393 9.83425C4.65637 9.67808 4.94159 9.60487 5.34483 9.60487H8.3052C8.48223 9.60487 8.61992 9.46333 8.61992 9.29252C8.61992 9.1217 8.48223 8.98016 8.3052 8.98016V8.98504Z" fill="#2C2D2B"/>
<path d="M8.51627 9.53652C8.46217 9.58044 8.38841 9.6146 8.30481 9.6146H5.34444C5.16741 9.6146 5.01497 9.62437 4.88711 9.65365C4.715 9.69269 4.58714 9.75126 4.50354 9.84399C4.29209 10.0539 4.29209 10.4443 4.297 10.8543V11.03C4.297 11.3569 4.29209 11.9036 4.28225 12.5332C4.2675 13.4019 4.25274 14.4902 4.25274 15.4127C4.25274 16.623 5.08381 16.6913 5.18216 16.6962C5.35428 16.6962 5.49197 16.8378 5.49197 17.0135C5.49197 17.0818 5.46246 17.1501 5.42312 17.1989H5.41329C4.87727 17.1989 3.86426 16.7938 3.86426 15.3053C3.86426 14.3829 3.87901 13.2994 3.89376 12.4258C3.9036 11.806 3.90852 11.2691 3.90852 10.947V10.7859C3.9036 10.2832 3.89868 9.72198 4.297 9.32665C4.40027 9.2144 4.53305 9.13631 4.69041 9.06311C4.87727 9.00942 5.09857 8.9899 5.35428 8.9899H8.31465C8.49168 8.9899 8.62937 9.13143 8.62937 9.30225C8.62937 9.39498 8.58511 9.47307 8.52119 9.5414L8.51627 9.53652Z" fill="#686867"/>
<g style="mix-blend-mode:multiply" opacity="0.5">
<path d="M8.51629 9.5366C8.46712 9.58052 8.38844 9.61468 8.30484 9.61468H5.34447C5.16744 9.61468 5.01499 9.62444 4.88714 9.65373C4.71502 9.69277 4.58716 9.75134 4.50357 9.84407C4.29211 10.0539 4.29211 10.4444 4.29703 10.8543V11.03C4.29703 11.357 4.29211 11.9036 4.28228 12.5332C4.26752 13.402 4.25277 14.4903 4.25277 15.4127C4.25277 16.3351 4.74944 16.5987 5.02483 16.667C4.79862 16.6377 4.15442 16.4523 4.15442 15.3883C4.15442 14.4708 4.16917 13.3873 4.18392 12.5088C4.19376 11.8841 4.20359 11.3375 4.20359 11.0105C4.20359 10.9519 4.20359 10.8934 4.20359 10.8348C4.20359 10.42 4.19868 10.0344 4.40521 9.82455C4.48881 9.7367 4.61667 9.66837 4.7937 9.63421C4.92156 9.60492 5.074 9.59028 5.25103 9.59028H8.21141C8.42778 9.59028 8.58514 9.46827 8.52121 9.53172L8.51629 9.5366Z" fill="#C0BAC4"/>
</g>
<g style="mix-blend-mode:multiply" opacity="0.5">
<path d="M8.51667 9.53656C8.46258 9.58048 8.38881 9.61465 8.30522 9.61465H5.34485C5.16781 9.61465 5.01537 9.62441 4.88751 9.65369C5.04979 9.57072 5.276 9.53656 5.58581 9.53656H8.52159H8.51667Z" fill="#C0BAC4"/>
</g>
<path d="M15.4064 28.7365H18.8388C19.4092 28.7365 19.6059 28.8731 19.6059 29.2099C19.6059 29.5466 19.6059 30.8302 16.916 30.8058C14.2606 30.7814 14.0786 28.7365 15.4064 28.7365Z" fill="#0080C6"/>
<g style="mix-blend-mode:multiply">
<path d="M19.1679 30.2396C18.7647 30.0005 18.1303 29.7614 17.2403 29.7614C16.1436 29.7614 15.5683 30.1518 15.3027 30.43C15.6716 30.6496 16.2125 30.796 16.9157 30.8058C18.1402 30.8058 18.8139 30.552 19.1679 30.2396Z" fill="#1A66B1"/>
</g>
<path d="M11.3101 52.2215L16.0407 37.8777H33.562L42.2022 52.2215H39.4778L32.4949 40.2349H17.7816L14.5016 52.2215H11.3101Z" fill="#595959"/>
<path d="M13.9705 52.2215L17.5062 39.8445L32.608 39.825L39.9057 52.2215H39.4778L32.4949 40.2349H17.7816L14.5016 52.2215H13.9705Z" fill="#292929"/>
<path d="M8.99881 45.3937H1.53887C1.53887 45.3937 0.0636028 45.1204 -0.000325455 46.3014V51.1039C-0.000325455 51.1039 -0.0593362 52.8316 1.24382 52.9243H14.2065C14.2065 52.9243 15.0376 52.9243 15.2146 51.8311L16.0407 46.931C16.0407 46.931 16.0407 45.4229 14.8163 45.3595L8.99881 45.3839V45.3937Z" fill="#595959"/>
<path d="M-0.000325455 48.3805V51.1087C-0.000325455 51.1087 -0.0593362 52.8364 1.24382 52.9292H14.2065C14.2065 52.9292 15.0376 52.9292 15.2146 51.8359L15.7949 48.3805H-0.000325455Z" fill="#292929"/>
<path d="M34.5554 49.4054C34.5554 54.1444 30.6803 58 25.8955 58C21.1108 58 17.2357 54.1493 17.2357 49.4054C17.2357 44.6616 21.1108 40.806 25.8955 40.806C30.6803 40.806 34.5554 44.6616 34.5554 49.4054Z" fill="#1D1D1B"/>
<g style="mix-blend-mode:screen">
<path style="mix-blend-mode:screen" opacity="0.5" d="M25.9496 41.7967C30.2525 41.7967 33.7931 45.013 34.2849 49.1468C34.2062 44.6177 30.4836 40.9622 25.8955 40.9622C21.3074 40.9622 17.5062 44.6909 17.5062 49.2932C17.5062 49.6202 17.5209 49.9472 17.5652 50.2742C17.5652 50.2254 17.5603 50.1766 17.5603 50.1326C17.5603 45.5303 21.3222 41.8016 25.9545 41.8016L25.9496 41.7967Z" fill="url(#paint3_radial_1_283)"/>
</g>
<g style="mix-blend-mode:multiply">
<g style="mix-blend-mode:screen" opacity="0.5">
<path d="M25.9496 56.9702C30.2525 56.9702 33.7931 53.7588 34.2849 49.6202C34.2062 54.1542 30.4836 57.7999 25.8955 57.7999C21.3074 57.7999 17.5062 54.0761 17.5062 49.4689C17.5062 49.1468 17.5209 48.8149 17.5652 48.4928C17.5652 48.5416 17.5603 48.5904 17.5603 48.6343C17.5603 53.2366 21.3222 56.9702 25.9545 56.9702H25.9496Z" fill="#1D1D1B"/>
</g>
</g>
<g style="mix-blend-mode:multiply">
<path d="M25.8956 42.9339C22.2861 42.9339 19.3651 45.8378 19.3651 49.4201C19.3651 53.0024 22.291 55.9014 25.8956 55.9014C29.5001 55.9014 32.4261 52.9975 32.4261 49.4201C32.4261 45.8427 29.5001 42.9339 25.8956 42.9339Z" fill="#2E2D2C"/>
</g>
<g style="mix-blend-mode:screen" opacity="0.5">
<path d="M31.3543 49.3859C31.3543 52.4167 28.8758 54.8814 25.8269 54.8814C22.7781 54.8814 20.2849 52.4167 20.2849 49.3859C20.2849 46.3551 22.7633 43.8953 25.8269 43.8953C28.8906 43.8953 31.3543 46.3502 31.3543 49.3859Z" fill="white"/>
</g>
<path d="M30.6508 49.3859C30.6508 52.036 28.492 54.1834 25.8218 54.1834C23.1516 54.1834 20.9829 52.0409 20.9829 49.3859C20.9829 46.7309 23.1417 44.5932 25.8218 44.5932C28.5019 44.5932 30.6508 46.7358 30.6508 49.3859Z" fill="#2C2D2B"/>
<path d="M30.2968 49.3859C30.2968 51.8359 28.2953 53.8272 25.8267 53.8272C23.3581 53.8272 21.3468 51.8359 21.3468 49.3859C21.3468 46.9359 23.3532 44.9495 25.8267 44.9495C28.3002 44.9495 30.2968 46.9359 30.2968 49.3859Z" fill="#686867"/>
<path d="M27.4198 49.3664C27.4198 50.1961 26.7411 50.8745 25.8953 50.8745C25.0495 50.8745 24.3758 50.1961 24.3758 49.3664C24.3758 48.5368 25.0593 47.8535 25.8953 47.8535C26.7313 47.8535 27.4198 48.527 27.4198 49.3664Z" fill="#2D2E2D"/>
<g style="mix-blend-mode:multiply">
<path d="M26.7561 49.3664C26.7561 49.8349 26.3725 50.2156 25.8955 50.2156C25.4185 50.2156 25.0399 49.8349 25.0399 49.3664C25.0399 48.8979 25.4234 48.5123 25.8955 48.5123C26.3676 48.5123 26.7561 48.8881 26.7561 49.3664Z" fill="#2D2E2D"/>
</g>
<g style="mix-blend-mode:multiply" opacity="0.8">
<path d="M20.3977 48.9857C20.3977 49.0589 20.3977 49.1224 20.3977 49.1858C20.3977 52.1629 22.827 54.5739 25.8267 54.5739C28.8264 54.5739 31.2458 52.1629 31.2458 49.1858C31.2458 49.1126 31.2458 49.0492 31.2458 48.9808C26.6922 50.3913 22.9204 49.8105 20.4075 48.9857H20.3977Z" fill="#BBBABA"/>
</g>
<path d="M25.9001 45.6231C25.7625 45.6231 25.6494 45.5157 25.6494 45.3839C25.6494 45.2521 25.7625 45.1399 25.9001 45.1399C26.0329 45.1399 26.1411 45.2521 26.1411 45.3839C26.1411 45.5157 26.0329 45.6231 25.9001 45.6231Z" fill="black"/>
<path d="M25.9001 53.4807C25.7625 53.4807 25.6494 53.3684 25.6494 53.2367C25.6494 53.1049 25.7625 52.9975 25.9001 52.9975C26.0329 52.9975 26.1411 53.1049 26.1411 53.2367C26.1411 53.3684 26.0329 53.4807 25.9001 53.4807Z" fill="black"/>
<path d="M29.6077 49.3127C29.6077 49.1761 29.7208 49.0687 29.8487 49.0687C29.9864 49.0687 30.0995 49.1761 30.0995 49.3127C30.0995 49.4494 29.9864 49.5519 29.8487 49.5519C29.7208 49.5519 29.6077 49.4445 29.6077 49.3127Z" fill="black"/>
<path d="M21.6956 49.3127C21.6956 49.1761 21.8038 49.0687 21.9464 49.0687C22.0743 49.0687 22.1874 49.1761 22.1874 49.3127C22.1874 49.4494 22.0743 49.5519 21.9464 49.5519C21.8087 49.5519 21.6956 49.4445 21.6956 49.3127Z" fill="black"/>
<path d="M28.5165 46.7065C28.4231 46.6089 28.4231 46.4576 28.5165 46.3649C28.6149 46.2673 28.7673 46.2722 28.8608 46.3649C28.9591 46.4576 28.9591 46.6138 28.8608 46.7065C28.7673 46.7993 28.61 46.7993 28.5165 46.7065Z" fill="black"/>
<path d="M22.925 52.2557C22.8267 52.163 22.8267 52.0068 22.925 51.9092C23.0185 51.8164 23.1758 51.8164 23.2693 51.9092C23.3627 52.0068 23.3627 52.163 23.2693 52.2557C23.1758 52.3484 23.0185 52.3484 22.925 52.2557Z" fill="black"/>
<path d="M28.5165 51.9092C28.6149 51.8164 28.7673 51.8164 28.8608 51.9092C28.9591 52.0068 28.9591 52.163 28.8608 52.2557C28.7673 52.3484 28.61 52.3484 28.5165 52.2557C28.4231 52.163 28.4231 52.0068 28.5165 51.9092Z" fill="black"/>
<path d="M22.925 46.36C23.0185 46.2722 23.1758 46.2673 23.2693 46.36C23.3627 46.4576 23.3627 46.6089 23.2693 46.7065C23.1758 46.7993 23.0185 46.7993 22.925 46.7065C22.8267 46.6089 22.8267 46.4576 22.925 46.36Z" fill="black"/>
<path d="M16.5817 9.3169H18.77V26.7062H6.22529C6.15152 26.6671 6.07776 26.6281 6.01383 26.5939C5.83188 26.4768 5.58109 26.2474 5.48273 25.5739C6.60394 21.8842 9.14632 11.64 9.3086 10.9909C9.34794 10.8689 9.84953 9.42427 11.6494 9.35594C12.3427 9.32666 14.0491 9.31202 16.5817 9.31202V9.3169ZM16.5817 8.61411C14.4327 8.61411 12.4263 8.62387 11.6198 8.65803C9.22008 8.75076 8.62505 10.8055 8.62505 10.8055C8.62505 10.8055 5.88106 21.8989 4.76477 25.5153C4.83853 26.1693 5.04999 26.8184 5.64501 27.1893C5.78271 27.2723 5.92531 27.3455 6.06792 27.4138H19.4781V8.61411C18.5438 8.61411 17.5504 8.61411 16.5817 8.61411Z" fill="#292929"/>
<path d="M21.5336 9.33154C23.8055 9.34618 25.5955 9.36083 25.6152 9.36083H25.6496C25.7332 9.36083 26.4905 9.37059 27.1987 9.73175C28.0543 10.1612 28.5018 10.9031 28.5657 11.9914V26.711H21.5287V9.33154H21.5336ZM20.8255 8.62387V27.4138H29.2788V11.9719C29.1018 8.741 25.9889 8.65315 25.6496 8.65315C25.6349 8.65315 25.6201 8.65315 25.6201 8.65315C25.6201 8.65315 23.4515 8.62875 20.8255 8.61899V8.62387Z" fill="#292929"/>
<path d="M42.6204 39.5517H41.7205V51.3723H42.6204V39.5517Z" fill="black"/>
<path d="M67.5131 39.5517H66.6181V51.3723H67.5131V39.5517Z" fill="black"/>
<path d="M70.4882 45.2911H38.7503V47.2921H70.4882V45.2911Z" fill="#E3E3E3"/>
<path d="M70.4882 46.2916H38.7503V47.2921H70.4882V46.2916Z" fill="#8F8F8F"/>
<g style="mix-blend-mode:multiply">
<path d="M39.2371 45.2911H38.7503V47.2921H41.0616C40.4518 46.6186 39.8617 45.9402 39.2371 45.2911Z" fill="#3D3D3D"/>
</g>
<g style="mix-blend-mode:multiply">
<path d="M49.785 45.2911H44.4544C45.0642 45.9793 45.6936 46.643 46.3477 47.2921H51.9291C51.2013 46.6333 50.4932 45.9646 49.785 45.2911Z" fill="#3D3D3D"/>
</g>
<g style="mix-blend-mode:multiply">
<path d="M68.7671 46.2575C69.1506 46.5991 69.5293 46.9456 69.9178 47.2921H70.4882V45.2911H67.6803C68.0393 45.6181 68.4032 45.9402 68.7671 46.2575Z" fill="#3D3D3D"/>
</g>
<g style="mix-blend-mode:multiply">
<path d="M61.6167 45.2911H55.991C56.7483 45.9598 57.5105 46.6284 58.2825 47.2921H63.9623C63.2001 46.5991 62.4231 45.9207 61.6167 45.2911Z" fill="#3D3D3D"/>
</g>
<path d="M70.4882 49.8739H38.7503V51.8798H70.4882V49.8739Z" fill="#E3E3E3"/>
<path d="M70.4882 50.8745H38.7503V51.875H70.4882V50.8745Z" fill="#8F8F8F"/>
<g style="mix-blend-mode:multiply">
<path d="M39.2371 49.8739H38.7503V51.8798H41.0616C40.4518 51.2063 39.8617 50.5279 39.2371 49.8739Z" fill="#3D3D3D"/>
</g>
<g style="mix-blend-mode:multiply">
<path d="M49.785 49.8739H44.4544C45.0642 50.5621 45.6936 51.2258 46.3477 51.8798H51.9291C51.2013 51.2161 50.4932 50.5523 49.785 49.8739Z" fill="#3D3D3D"/>
</g>
<g style="mix-blend-mode:multiply">
<path d="M68.7671 50.8403C69.1506 51.1819 69.5293 51.5285 69.9178 51.875H70.4882V49.8691H67.6803C68.0393 50.1912 68.4032 50.5182 68.7671 50.8354V50.8403Z" fill="#3D3D3D"/>
</g>
<g style="mix-blend-mode:multiply">
<path d="M61.6167 49.8739H55.991C56.7483 50.5426 57.5105 51.2161 58.2825 51.8798H63.9623C63.2001 51.1868 62.4231 50.5084 61.6167 49.8739Z" fill="#3D3D3D"/>
</g>
<path d="M89.1153 49.4054C89.1153 54.1444 85.2402 58 80.4604 58C75.6805 58 71.8005 54.1493 71.8005 49.4054C71.8005 44.6616 75.6707 40.806 80.4604 40.806C85.2501 40.806 89.1153 44.6616 89.1153 49.4054Z" fill="#1D1D1B"/>
<g style="mix-blend-mode:screen">
<path style="mix-blend-mode:screen" opacity="0.5" d="M80.5145 41.7967C84.8222 41.7967 88.3531 45.013 88.8497 49.1468C88.7661 44.6177 85.0435 40.9622 80.4604 40.9622C75.8772 40.9622 72.0661 44.6909 72.0661 49.2932C72.0661 49.6202 72.0858 49.9472 72.1251 50.2742C72.1251 50.2254 72.1202 50.1766 72.1202 50.1326C72.1202 45.5303 75.8821 41.8016 80.5145 41.8016V41.7967Z" fill="url(#paint4_radial_1_283)"/>
</g>
<g style="mix-blend-mode:multiply">
<g style="mix-blend-mode:screen" opacity="0.5">
<path d="M80.5145 56.9702C84.8222 56.9702 88.3531 53.7588 88.8497 49.6202C88.7661 54.1542 85.0435 57.7999 80.4604 57.7999C75.8772 57.7999 72.0661 54.0761 72.0661 49.4689C72.0661 49.1468 72.0858 48.8149 72.1251 48.4928C72.1251 48.5416 72.1202 48.5904 72.1202 48.6343C72.1202 53.2366 75.8821 56.9702 80.5145 56.9702Z" fill="#1D1D1B"/>
</g>
</g>
<g style="mix-blend-mode:multiply">
<path d="M80.4604 42.9339C76.8509 42.9339 73.9299 45.8378 73.9299 49.4201C73.9299 53.0024 76.8509 55.9014 80.4604 55.9014C84.0699 55.9014 86.9909 52.9975 86.9909 49.4201C86.9909 45.8427 84.06 42.9339 80.4604 42.9339Z" fill="#2E2D2C"/>
</g>
<g style="mix-blend-mode:screen" opacity="0.5">
<path d="M85.9191 49.3859C85.9191 52.4167 83.4357 54.8814 80.3868 54.8814C77.338 54.8814 74.8497 52.4167 74.8497 49.3859C74.8497 46.3551 77.3281 43.8953 80.3868 43.8953C83.4456 43.8953 85.9191 46.3502 85.9191 49.3859Z" fill="white"/>
</g>
<path d="M85.2156 49.3859C85.2156 52.036 83.0519 54.1835 80.3866 54.1835C77.7213 54.1835 75.5526 52.0409 75.5526 49.3859C75.5526 46.7309 77.7114 44.5933 80.3866 44.5933C83.0617 44.5933 85.2156 46.7358 85.2156 49.3859Z" fill="#2C2D2B"/>
<path d="M84.8569 49.3859C84.8569 51.8359 82.8505 53.8272 80.3819 53.8272C77.9133 53.8272 75.902 51.8359 75.902 49.3859C75.902 46.9359 77.9035 44.9495 80.3819 44.9495C82.8604 44.9495 84.8569 46.9359 84.8569 49.3859Z" fill="#686867"/>
<g style="mix-blend-mode:multiply" opacity="0.8">
<path d="M74.9625 48.9857V49.1858C74.9625 52.1629 77.3918 54.5739 80.3866 54.5739C83.3814 54.5739 85.8057 52.1629 85.8057 49.1858C85.8057 49.1126 85.8057 49.0492 85.8057 48.9808C81.2521 50.3913 77.4754 49.8105 74.9674 48.9857H74.9625Z" fill="#BBBABA"/>
</g>
<path d="M76.2556 49.3127C76.2556 49.1761 76.3637 49.0687 76.5014 49.0687C76.6391 49.0687 76.7473 49.1761 76.7473 49.3127C76.7473 49.4494 76.6342 49.5519 76.5014 49.5519C76.3687 49.5519 76.2556 49.4445 76.2556 49.3127Z" fill="black"/>
<path d="M71.201 43.7392L74.9629 39.4541H113.305L117.839 47.2971H115.892L112.046 40.6742H75.9071L72.4501 44.5933L71.201 43.7392Z" fill="#818080"/>
<g style="mix-blend-mode:multiply">
<path d="M71.201 43.7392L74.9629 39.4541H113.305L117.839 47.2971H116.9L112.754 40.1764L75.553 40.0641L71.7665 43.9197L71.201 43.7392Z" fill="#818080"/>
</g>
<path d="M3.56456 40.0642V35.6863C3.56456 33.9684 2.25157 32.553 0.569763 32.3725V43.3829C2.25157 43.2023 3.56456 41.7919 3.56456 40.069V40.0642Z" fill="#9D9FA2"/>
<path d="M3.14165 39.7567V35.9938C3.14165 34.515 2.01553 33.2998 0.569763 33.1436V42.6069C2.01553 42.4556 3.14165 41.2355 3.14165 39.7567Z" fill="#EE7125"/>
<path d="M0.569763 39.8787V42.6069C1.97618 42.4556 3.07772 41.3038 3.13673 39.8787H0.569763Z" fill="#E63324"/>
<path d="M0.864807 33.9147V42.153C0.864807 42.153 1.60736 38.8196 0.864807 33.9147Z" fill="white"/>
<g style="mix-blend-mode:screen">
<path d="M0.378128 51.3723V46.7895C0.378128 46.7895 0.33387 45.6084 1.83373 45.6231H11.6197L1.83864 46.0623C1.83864 46.0623 1.00758 46.1404 0.850214 46.7895L0.383046 51.3723H0.378128Z" fill="#595959"/>
</g>
<path d="M31.452 34.0904H20.3629V7.3891H19.8957V37.8777H20.3629V34.5589H31.452V34.0904Z" fill="#CCE0F4"/>
<g style="mix-blend-mode:screen">
<path d="M14.2314 44.9495L16.523 38.2241L33.0362 38.0875L16.6902 38.6488L14.2314 44.9495Z" fill="#595959"/>
</g>
<defs>
<linearGradient id="paint0_linear_1_283" x1="63.8144" y1="47.873" x2="63.8144" y2="38.6634" gradientUnits="userSpaceOnUse">
<stop stop-color="#B6B8B9"/>
<stop offset="1" stop-color="#242626"/>
</linearGradient>
<radialGradient id="paint1_radial_1_283" cx="0" cy="0" r="1" gradientUnits="userSpaceOnUse" gradientTransform="translate(-0.163823 9.23885) scale(0.434319 0.673511)">
<stop stop-color="white"/>
<stop offset="0.27" stop-color="white"/>
<stop offset="0.38" stop-color="#FCFCFC"/>
<stop offset="0.45" stop-color="#F4F3F5"/>
<stop offset="0.51" stop-color="#E7E5E8"/>
<stop offset="0.56" stop-color="#D4D0D7"/>
<stop offset="0.6" stop-color="#C0BAC4"/>
<stop offset="0.62" stop-color="#C8C3CB"/>
<stop offset="0.68" stop-color="#E0DDE2"/>
<stop offset="0.74" stop-color="#F1F0F2"/>
<stop offset="0.8" stop-color="#FBFBFB"/>
<stop offset="0.86" stop-color="white"/>
<stop offset="0.91" stop-color="#FCFCFC"/>
<stop offset="0.94" stop-color="#F4F3F5"/>
<stop offset="0.96" stop-color="#E6E4E8"/>
<stop offset="0.98" stop-color="#D3CFD6"/>
<stop offset="1" stop-color="#C0BAC4"/>
</radialGradient>
<radialGradient id="paint2_radial_1_283" cx="0" cy="0" r="1" gradientUnits="userSpaceOnUse" gradientTransform="translate(-0.163823 9.23885) scale(0.434319 0.673511)">
<stop stop-color="white"/>
<stop offset="0.27" stop-color="white"/>
<stop offset="0.38" stop-color="#FCFCFC"/>
<stop offset="0.45" stop-color="#F4F3F5"/>
<stop offset="0.51" stop-color="#E7E5E8"/>
<stop offset="0.56" stop-color="#D4D0D7"/>
<stop offset="0.6" stop-color="#C0BAC4"/>
<stop offset="0.62" stop-color="#C8C3CB"/>
<stop offset="0.68" stop-color="#E0DDE2"/>
<stop offset="0.74" stop-color="#F1F0F2"/>
<stop offset="0.8" stop-color="#FBFBFB"/>
<stop offset="0.86" stop-color="white"/>
<stop offset="0.91" stop-color="#FCFCFC"/>
<stop offset="0.94" stop-color="#F4F3F5"/>
<stop offset="0.96" stop-color="#E6E4E8"/>
<stop offset="0.98" stop-color="#D3CFD6"/>
<stop offset="1" stop-color="#C0BAC4"/>
</radialGradient>
<radialGradient id="paint3_radial_1_283" cx="0" cy="0" r="1" gradientUnits="userSpaceOnUse" gradientTransform="translate(25.8955 49.2932) scale(9.76627 9.6927)">
<stop offset="0.39" stop-color="#1E211D"/>
<stop offset="0.47" stop-color="#232521"/>
<stop offset="0.56" stop-color="#313330"/>
<stop offset="0.66" stop-color="#494A47"/>
<stop offset="0.71" stop-color="#595956"/>
<stop offset="0.76" stop-color="#686865"/>
<stop offset="0.85" stop-color="#91908F"/>
<stop offset="0.92" stop-color="#B3B2B1"/>
</radialGradient>
<radialGradient id="paint4_radial_1_283" cx="0" cy="0" r="1" gradientUnits="userSpaceOnUse" gradientTransform="translate(80.4555 0.244045) scale(9.77119 9.69758)">
<stop offset="0.39" stop-color="#1E211D"/>
<stop offset="0.47" stop-color="#232521"/>
<stop offset="0.56" stop-color="#313330"/>
<stop offset="0.66" stop-color="#494A47"/>
<stop offset="0.71" stop-color="#595956"/>
<stop offset="0.76" stop-color="#686865"/>
<stop offset="0.85" stop-color="#91908F"/>
<stop offset="0.92" stop-color="#B3B2B1"/>
</radialGradient>
</defs>
</svg>
